<svg xmlns="http://www.w3.org/2000/svg" viewBox="0 0 512 512">
  <rect width="512" height="512" rx="96" fill="#18202f"/>
  <path d="M150 188c0-58 47-105 105-105s105 47 105 105v62c0 58-47 105-105 105s-105-47-105-105v-62Z" fill="#ecfdf5"/>
  <path d="M204 188c0-28 23-51 51-51s51 23 51 51v62c0 28-23 51-51 51s-51-23-51-51v-62Z" fill="#13795b"/>
  <path d="M112 242a24 24 0 0 1 48 0v8c0 53 42 95 95 95s95-42 95-95v-8a24 24 0 0 1 48 0v8c0 70-51 128-119 139v39h50a24 24 0 0 1 0 48H181a24 24 0 0 1 0-48h50v-39c-68-11-119-69-119-139v-8Z" fill="#ffffff"/>
</svg>
